<svg id="visual" viewBox="0 0 960 540" width="960" height="540" xmlns="http://www.w3.org/2000/svg" xmlns:xlink="http://www.w3.org/1999/xlink" version="1.1"><path d="M0 71L14.5 76.5C29 82 58 93 87.2 102C116.3 111 145.7 118 174.8 108C204 98 233 71 262 64.7C291 58.3 320 72.7 349 79C378 85.3 407 83.7 436.2 83.7C465.3 83.7 494.7 85.3 523.8 93.5C553 101.7 582 116.3 611 125.3C640 134.3 669 137.7 698 141.2C727 144.7 756 148.3 785.2 148.3C814.3 148.3 843.7 144.7 872.8 130.3C902 116 931 91 945.5 78.5L960 66L960 0L945.5 0C931 0 902 0 872.8 0C843.7 0 814.3 0 785.2 0C756 0 727 0 698 0C669 0 640 0 611 0C582 0 553 0 523.8 0C494.7 0 465.3 0 436.2 0C407 0 378 0 349 0C320 0 291 0 262 0C233 0 204 0 174.8 0C145.7 0 116.3 0 87.2 0C58 0 29 0 14.5 0L0 0Z" fill="#000000"></path><path d="M0 163L14.5 164.8C29 166.7 58 170.3 87.2 172.2C116.3 174 145.7 174 174.8 170.3C204 166.7 233 159.3 262 159.3C291 159.3 320 166.7 349 171.2C378 175.7 407 177.3 436.2 177.3C465.3 177.3 494.7 175.7 523.8 178.3C553 181 582 188 611 188.8C640 189.7 669 184.3 698 186.2C727 188 756 197 785.2 198.8C814.3 200.7 843.7 195.3 872.8 188.2C902 181 931 172 945.5 167.5L960 163L960 64L945.5 76.5C931 89 902 114 872.8 128.3C843.7 142.7 814.3 146.3 785.2 146.3C756 146.3 727 142.7 698 139.2C669 135.7 640 132.3 611 123.3C582 114.3 553 99.7 523.8 91.5C494.7 83.3 465.3 81.7 436.2 81.7C407 81.7 378 83.3 349 77C320 70.7 291 56.3 262 62.7C233 69 204 96 174.8 106C145.7 116 116.3 109 87.2 100C58 91 29 80 14.5 74.5L0 69Z" fill="#0a0a0a"></path><path d="M0 330L14.5 331.8C29 333.7 58 337.3 87.2 340.2C116.3 343 145.7 345 174.8 342.3C204 339.7 233 332.3 262 329.5C291 326.7 320 328.3 349 334.7C378 341 407 352 436.2 353.8C465.3 355.7 494.7 348.3 523.8 354.7C553 361 582 381 611 375.7C640 370.3 669 339.7 698 336.8C727 334 756 359 785.2 368.8C814.3 378.7 843.7 373.3 872.8 368C902 362.7 931 357.3 945.5 354.7L960 352L960 161L945.5 165.5C931 170 902 179 872.8 186.2C843.7 193.3 814.3 198.7 785.2 196.8C756 195 727 186 698 184.2C669 182.3 640 187.7 611 186.8C582 186 553 179 523.8 176.3C494.7 173.7 465.3 175.3 436.2 175.3C407 175.3 378 173.7 349 169.2C320 164.7 291 157.3 262 157.3C233 157.3 204 164.7 174.8 168.3C145.7 172 116.3 172 87.2 170.2C58 168.3 29 164.7 14.5 162.8L0 161Z" fill="#0f0f0f"></path><path d="M0 498L14.5 498.8C29 499.7 58 501.3 87.2 497.7C116.3 494 145.7 485 174.8 479.7C204 474.3 233 472.7 262 474.5C291 476.3 320 481.7 349 484.3C378 487 407 487 436.2 484.3C465.3 481.7 494.7 476.3 523.8 475.5C553 474.7 582 478.3 611 474.7C640 471 669 460 698 459C727 458 756 467 785.2 468C814.3 469 843.7 462 872.8 466.5C902 471 931 487 945.5 495L960 503L960 350L945.5 352.7C931 355.3 902 360.7 872.8 366C843.7 371.3 814.3 376.7 785.2 366.8C756 357 727 332 698 334.8C669 337.7 640 368.3 611 373.7C582 379 553 359 523.8 352.7C494.7 346.3 465.3 353.7 436.2 351.8C407 350 378 339 349 332.7C320 326.3 291 324.7 262 327.5C233 330.3 204 337.7 174.8 340.3C145.7 343 116.3 341 87.2 338.2C58 335.3 29 331.7 14.5 329.8L0 328Z" fill="#0a0a0a"></path><path d="M0 541L14.5 541C29 541 58 541 87.2 541C116.3 541 145.7 541 174.8 541C204 541 233 541 262 541C291 541 320 541 349 541C378 541 407 541 436.2 541C465.3 541 494.7 541 523.8 541C553 541 582 541 611 541C640 541 669 541 698 541C727 541 756 541 785.2 541C814.3 541 843.7 541 872.8 541C902 541 931 541 945.5 541L960 541L960 501L945.5 493C931 485 902 469 872.8 464.5C843.7 460 814.3 467 785.2 466C756 465 727 456 698 457C669 458 640 469 611 472.7C582 476.3 553 472.7 523.8 473.5C494.7 474.3 465.3 479.7 436.2 482.3C407 485 378 485 349 482.3C320 479.7 291 474.3 262 472.5C233 470.7 204 472.3 174.8 477.7C145.7 483 116.3 492 87.2 495.7C58 499.3 29 497.7 14.5 496.8L0 496Z" fill="#000000"></path></svg>